# xmcd
#
# Track frame offsets: 
#        150
#        18076
#        46627
#        64991
#        84935
#        110158
#        127792
#        150016
#        175226
#        197989
#
# Disc length: 2936 seconds
#
# Revision: 0
# Processed by: cddbd v1.5.2PL0 Copyright (c) Steve Scherf et al.
# Submitted via: ExactAudioCopy v0.99pb3
#
DISCID=6f0b760a
DTITLE=Dave Keyes - Tear It Up!
DYEAR=1997
DGENRE=Blues
TTITLE0=Don't Matter Anymore
TTITLE1=Jimmy's Boogie
TTITLE2=My Plymouth Car
TTITLE3=Route 90
TTITLE4=Broken Heart
TTITLE5=Water These Roots
TTITLE6=I Got Da Funk
TTITLE7=Little Brother
TTITLE8=Heart And Soul
TTITLE9=All Fall Down
EXTD=
EXTT0=
EXTT1=
EXTT2=
EXTT3=
EXTT4=
EXTT5=
EXTT6=
EXTT7=
EXTT8=
EXTT9=
PLAYORDER=
